<svg width="770" height="135" viewBox="0 0 770 135" fill="none" xmlns="http://www.w3.org/2000/svg">
<g clip-path="url(#clip0_18_4)">
<path d="M161.672 44.4199H157.201V59.9648C155.588 59.0078 153.264 58.1875 150.229 57.5039C147.385 56.8477 144.924 56.5195 142.846 56.5195C137.842 56.5195 133.645 57.4082 130.254 59.1855C128.34 60.1973 127.383 61.5234 127.383 63.1641C127.383 65.3516 128.531 66.4453 130.828 66.4453C132.223 66.4453 134.041 66.0352 136.283 65.2148C137.732 64.6953 139.592 64.0391 141.861 63.2461C142.818 62.918 144.514 62.7539 146.947 62.7539C151.678 62.7539 155.205 64.2168 157.529 67.1426C158.65 68.5371 159.211 70.1777 159.211 72.0645C159.211 76.4121 156.477 79.8301 151.008 82.3184C148.738 83.3574 146.578 83.9453 144.527 84.082C146.496 86.0508 148.369 87.0352 150.146 87.0352C150.721 87.0352 151.336 86.9531 151.992 86.7891L156.135 93.5566C155.287 94.2949 153.551 94.6641 150.926 94.6641C148.793 94.6641 146.988 93.9395 145.512 92.4902C144.719 91.6973 143.598 90.043 142.148 87.5273C140.918 85.3672 139.893 84.2734 139.072 84.2461C134.014 84.1094 130.117 83.1934 127.383 81.498C125.66 80.4316 124.799 78.9688 124.799 77.1094C124.799 74.8125 126.166 73.6641 128.9 73.6641C129.912 73.6641 132.018 74.457 135.217 76.043C138.443 77.6016 141.096 78.3809 143.174 78.3809C147.33 78.3809 151.227 77.3965 154.863 75.4277C156.641 74.4707 157.529 73.2949 157.529 71.9004C157.529 69.8223 155.889 68.7832 152.607 68.7832C151.596 68.7832 148.328 69.5215 142.805 70.998C139.551 71.873 137.555 72.3105 136.816 72.3105C132.469 72.3105 128.887 70.2598 126.07 66.1582C124.703 64.1895 124.02 62.0703 124.02 59.8008C123.992 55.1797 127.15 52.0625 133.494 50.4492C136.092 49.793 138.539 49.4648 140.836 49.4648C143.461 49.4648 147.18 50.1074 151.992 51.3926V44.4199H119.344V39.498H161.672V44.4199ZM206.297 44.4199H173.197V56.7656C176.178 53.5117 178.939 51.4199 181.482 50.4902C182.904 49.9707 184.504 49.7109 186.281 49.7109C192.953 49.7109 197.943 52.9922 201.252 59.5547C202.701 62.4258 203.426 65.2559 203.426 68.0449C203.426 73.1309 201.334 77.7246 197.15 81.8262C195.756 83.1934 194.717 84.1367 194.033 84.6562L187.307 80.6367C189.002 78.8594 190.93 76.6719 193.09 74.0742C195.523 71.1484 196.754 67.457 196.781 63C196.809 60.3477 196.207 58.1328 194.977 56.3555C193.582 54.2773 191.613 53.2656 189.07 53.3203C186.719 53.375 184.203 54.2637 181.523 55.9863C179.117 57.5176 177.121 59.3496 175.535 61.4824C173.812 63.7793 172.951 65.9941 172.951 68.127V84.4102L165.281 80.3086V44.4199H160.77V39.498H165.281C165.281 31.459 163.189 24.5957 159.006 18.9082C156.49 15.4902 154.166 13.084 152.033 11.6895L160.318 11.6074C164.912 14.123 168.562 19.5508 171.27 27.8906C172.555 31.8555 173.197 35.7246 173.197 39.498H206.297V44.4199ZM219.75 35.1914C219.641 35.3008 219.326 35.3555 218.807 35.3555C218.369 35.3555 217.986 35.3008 217.658 35.1914L214.992 29.7363C213.898 28.0137 212.408 26.8516 210.521 26.25C208.662 25.6211 207.514 24.9375 207.076 24.1992C206.666 22.9414 205.873 21.0137 204.697 18.416V17.4727H206.297C208.402 18.1289 210.111 18.7441 211.424 19.3184C213.584 20.2754 215.033 21.3828 215.771 22.6406C216.182 23.3242 216.811 25.0742 217.658 27.8906C218.451 30.543 219.121 32.3887 219.668 33.4277C219.723 33.9199 219.75 34.5078 219.75 35.1914ZM222.17 44.4199H205.477V39.498H222.17V44.4199ZM217.494 84.9434L210.604 81.1289V49.4648H217.494V84.9434ZM260.109 44.4199H233.203V55.002C234.816 54.0723 237.455 52.8555 241.119 51.3516C242.623 50.9414 244.441 50.7363 246.574 50.7363C249.5 50.7363 252.111 51.543 254.408 53.1562C256.979 54.9336 258.264 57.2305 258.264 60.0469C258.264 63.8477 256.09 66.6094 251.742 68.332C249.938 69.043 248.379 69.3984 247.066 69.3984L256.582 80.9648L251.373 84.7383L236.73 67.3477L239.438 61.7285C240.887 62.1387 242.404 62.3438 243.99 62.3438C246.314 62.3438 248.215 61.7969 249.691 60.7031C251.359 59.5 252.193 57.7773 252.193 55.5352C252.193 53.3477 250.635 52.2539 247.518 52.2539C245.33 52.2539 243.006 53.3066 240.545 55.4121C238.795 56.916 237.195 58.7344 235.746 60.8672C233.996 63.4375 233.121 65.6387 233.121 67.4707V84.6562L226.066 81.498V44.4199H220.857V39.498H225.82C225.82 31.6504 224.398 25.1289 221.555 19.9336C221.008 18.9219 219.955 17.4043 218.396 15.3809C216.92 13.4395 215.895 11.8945 215.32 10.7461H223.646C225.26 12.25 226.928 14.7246 228.65 18.1699C231.576 24.0215 233.039 31.1309 233.039 39.498H260.109V44.4199ZM301.289 44.4199H296.818V59.9648C295.205 59.0078 292.881 58.1875 289.846 57.5039C287.002 56.8477 284.541 56.5195 282.463 56.5195C277.459 56.5195 273.262 57.4082 269.871 59.1855C267.957 60.1973 267 61.5234 267 63.1641C267 65.3516 268.148 66.4453 270.445 66.4453C271.84 66.4453 273.658 66.0352 275.9 65.2148C277.35 64.6953 279.209 64.0391 281.479 63.2461C282.436 62.918 284.131 62.7539 286.564 62.7539C291.295 62.7539 294.822 64.2168 297.146 67.1426C298.268 68.5371 298.828 70.1777 298.828 72.0645C298.828 76.4121 296.094 79.8301 290.625 82.3184C288.355 83.3574 286.195 83.9453 284.145 84.082C286.113 86.0508 287.986 87.0352 289.764 87.0352C290.338 87.0352 290.953 86.9531 291.609 86.7891L295.752 93.5566C294.904 94.2949 293.168 94.6641 290.543 94.6641C288.41 94.6641 286.605 93.9395 285.129 92.4902C284.336 91.6973 283.215 90.043 281.766 87.5273C280.535 85.3672 279.51 84.2734 278.689 84.2461C273.631 84.1094 269.734 83.1934 267 81.498C265.277 80.4316 264.416 78.9688 264.416 77.1094C264.416 74.8125 265.783 73.6641 268.518 73.6641C269.529 73.6641 271.635 74.457 274.834 76.043C278.061 77.6016 280.713 78.3809 282.791 78.3809C286.947 78.3809 290.844 77.3965 294.48 75.4277C296.258 74.4707 297.146 73.2949 297.146 71.9004C297.146 69.8223 295.506 68.7832 292.225 68.7832C291.213 68.7832 287.945 69.5215 282.422 70.998C279.168 71.873 277.172 72.3105 276.434 72.3105C272.086 72.3105 268.504 70.2598 265.688 66.1582C264.32 64.1895 263.637 62.0703 263.637 59.8008C263.609 55.1797 266.768 52.0625 273.111 50.4492C275.709 49.793 278.156 49.4648 280.453 49.4648C283.078 49.4648 286.797 50.1074 291.609 51.3926V44.4199H258.961V39.498H301.289V44.4199ZM345.914 44.4199H312.814V56.7656C315.795 53.5117 318.557 51.4199 321.1 50.4902C322.521 49.9707 324.121 49.7109 325.898 49.7109C332.57 49.7109 337.561 52.9922 340.869 59.5547C342.318 62.4258 343.043 65.2559 343.043 68.0449C343.043 73.1309 340.951 77.7246 336.768 81.8262C335.373 83.1934 334.334 84.1367 333.65 84.6562L326.924 80.6367C328.619 78.8594 330.547 76.6719 332.707 74.0742C335.141 71.1484 336.371 67.457 336.398 63C336.426 60.3477 335.824 58.1328 334.594 56.3555C333.199 54.2773 331.23 53.2656 328.688 53.3203C326.336 53.375 323.82 54.2637 321.141 55.9863C318.734 57.5176 316.738 59.3496 315.152 61.4824C313.43 63.7793 312.568 65.9941 312.568 68.127V84.4102L304.898 80.3086V44.4199H300.387V39.498H304.898C304.898 31.459 302.807 24.5957 298.623 18.9082C296.107 15.4902 293.783 13.084 291.65 11.6895L299.936 11.6074C304.529 14.123 308.18 19.5508 310.887 27.8906C312.172 31.8555 312.814 35.7246 312.814 39.498H345.914V44.4199ZM385.576 44.4199H358.26V50.9824C358.369 50.9824 358.479 51.0371 358.588 51.1465C358.697 51.2559 358.793 51.3105 358.875 51.3105C358.656 51.3105 358.533 51.2969 358.506 51.2695C358.506 51.1328 360.543 50.6953 364.617 49.957C366.121 49.6836 367.611 49.5469 369.088 49.5469C375.24 49.5469 379.191 51.2695 380.941 54.7148C382.117 57.0117 382.705 61.6465 382.705 68.6191V84.4102C382.131 84.1914 379.957 83.3027 376.184 81.7441C376.184 80.8691 376.006 80.3086 375.65 80.0625C374.201 80.9102 373.012 81.5527 372.082 81.9902C369.129 83.3848 365.697 84.082 361.787 84.082C356.4 84.082 352.244 82.3867 349.318 78.9961C347.896 77.3555 347.186 75.5234 347.186 73.5C347.186 71.2305 348.307 68.9746 350.549 66.7324C354.896 62.3848 360.297 60.2109 366.75 60.2109C370.66 60.2109 373.805 61.1133 376.184 62.918V59.1445C374.98 57.6133 373.805 56.5879 372.656 56.0684C371.535 55.5488 369.99 55.3164 368.021 55.3711C363.619 55.4531 359.586 56.2598 355.922 57.791C354.281 58.4746 352.682 59.0898 351.123 59.6367V56.6016C351.479 56.3008 351.998 55.8496 352.682 55.248C352.791 55.1113 352.859 55.0293 352.887 55.002V44.4199H344.479V39.498H385.576V44.4199ZM376.184 70.3828C376.184 69.1797 374.748 68.0996 371.877 67.1426C369.498 66.3496 367.516 65.9531 365.93 65.9531C360.16 65.9531 355.539 68.0312 352.066 72.1875C350.672 73.8555 349.975 75.2227 349.975 76.2891C350.549 78.2852 352.805 79.2832 356.742 79.2832C361.828 79.2832 366.477 78.0117 370.688 75.4688C374.352 73.2539 376.184 71.5586 376.184 70.3828ZM472.242 44.4199H467.771V59.9648C466.158 59.0078 463.834 58.1875 460.799 57.5039C457.955 56.8477 455.494 56.5195 453.416 56.5195C448.412 56.5195 444.215 57.4082 440.824 59.1855C438.91 60.1973 437.953 61.5234 437.953 63.1641C437.953 65.3516 439.102 66.4453 441.398 66.4453C442.793 66.4453 444.611 66.0352 446.854 65.2148C448.303 64.6953 450.162 64.0391 452.432 63.2461C453.389 62.918 455.084 62.7539 457.518 62.7539C462.248 62.7539 465.775 64.2168 468.1 67.1426C469.221 68.5371 469.781 70.1777 469.781 72.0645C469.781 76.4121 467.047 79.8301 461.578 82.3184C459.309 83.3574 457.148 83.9453 455.098 84.082C457.066 86.0508 458.939 87.0352 460.717 87.0352C461.291 87.0352 461.906 86.9531 462.562 86.7891L466.705 93.5566C465.857 94.2949 464.121 94.6641 461.496 94.6641C459.363 94.6641 457.559 93.9395 456.082 92.4902C455.289 91.6973 454.168 90.043 452.719 87.5273C451.488 85.3672 450.463 84.2734 449.643 84.2461C444.584 84.1094 440.688 83.1934 437.953 81.498C436.23 80.4316 435.369 78.9688 435.369 77.1094C435.369 74.8125 436.736 73.6641 439.471 73.6641C440.482 73.6641 442.588 74.457 445.787 76.043C449.014 77.6016 451.666 78.3809 453.744 78.3809C457.9 78.3809 461.797 77.3965 465.434 75.4277C467.211 74.4707 468.1 73.2949 468.1 71.9004C468.1 69.8223 466.459 68.7832 463.178 68.7832C462.166 68.7832 458.898 69.5215 453.375 70.998C450.121 71.873 448.125 72.3105 447.387 72.3105C443.039 72.3105 439.457 70.2598 436.641 66.1582C435.273 64.1895 434.59 62.0703 434.59 59.8008C434.562 55.1797 437.721 52.0625 444.064 50.4492C446.662 49.793 449.109 49.4648 451.406 49.4648C454.031 49.4648 457.75 50.1074 462.562 51.3926V44.4199H429.914V39.498H472.242V44.4199ZM515.021 44.4199H503.824V52.5C505.109 52.8008 506.039 53.1699 506.613 53.6074V58.4473C503.359 57.3262 499.969 56.7656 496.441 56.7656C493.898 56.7656 491.438 57.1895 489.059 58.0371C485.887 59.1582 484.287 60.7578 484.26 62.8359C484.205 65.0234 487.309 66.1172 493.57 66.1172C493.707 66.1172 494.596 66.0762 496.236 65.9941L498.697 65.8711V69.6445C494.979 69.7539 492.654 69.8496 491.725 69.9316C485.189 70.5059 481.922 72.3926 481.922 75.5918C481.922 77.3691 483.057 78.7637 485.326 79.7754C487.104 80.5684 489.018 80.9648 491.068 80.9648C499.955 80.9648 507.146 77.0273 512.643 69.1523V79.5293C507.939 82.5098 502.375 84 495.949 84C488.922 84 482.852 82.373 477.738 79.1191C475.25 77.5332 474.006 75.7148 474.006 73.6641C474.006 71.668 474.881 69.9316 476.631 68.4551C477.697 67.5527 479.461 66.5137 481.922 65.3379L479.215 63.7793C477.602 62.8496 476.795 61.6055 476.795 60.0469C476.795 56.6562 479.352 54.2227 484.465 52.7461C488.348 51.625 492.709 51.0645 497.549 51.0645V44.4199H471.258V39.498H515.021V44.4199ZM550.787 44.4199H530.033V77.4375C530.033 78.3672 530.334 79.2695 530.936 80.1445C531.564 81.1016 532.33 81.5801 533.232 81.5801C537.307 81.5801 539.344 77.3691 539.344 68.9473L547.588 73.6641C544.443 80.6367 539.576 84.1094 532.986 84.082C529.158 84.0547 526.178 82.3047 524.045 78.832C523.115 77.3281 522.65 75.8242 522.65 74.3203V44.4199H514.078V39.498H522.65V25.7168L530.033 30.8438V39.498H550.787V44.4199ZM596.191 44.4199H561.861V70.7109C561.861 72.4609 562.23 74.2656 562.969 76.125C564.473 79.9258 566.961 81.8262 570.434 81.8262C575.109 81.8262 578.664 79.8711 581.098 75.9609C582.984 72.9531 583.928 70.123 583.928 67.4707V51.1465H592.254V86.0918C591.598 85.709 590.367 85.1211 588.562 84.3281L583.846 82.2363V78.9551C580.619 81.3066 577.857 82.7969 575.561 83.4258C574.166 83.8086 572.512 84 570.598 84C564.527 84 559.783 81.334 556.365 76.002C554.807 73.5684 554.027 70.916 554.027 68.0449V44.4199H549.064V39.498H596.191V44.4199Z" fill="url(#paint0_linear_18_4)"/>
</g>
<defs>
<linearGradient id="paint0_linear_18_4" x1="120" y1="48.5" x2="585.5" y2="49" gradientUnits="userSpaceOnUse">
<stop offset="0.558517" stop-color="#0E6503"/>
<stop offset="0.66751" stop-color="#E7811B"/>
</linearGradient>
<clipPath id="clip0_18_4">
<rect width="770" height="135" fill="white"/>
</clipPath>
</defs>
</svg>
